<?xml version="1.0" encoding="utf-8"?>
<!-- Generator: Adobe Illustrator 16.0.0, SVG Export Plug-In . SVG Version: 6.00 Build 0)  -->
<!DOCTYPE svg PUBLIC "-//W3C//DTD SVG 1.1//EN" "http://www.w3.org/Graphics/SVG/1.1/DTD/svg11.dtd">
<svg version="1.1" id="Layer_1" zoomAndPan="disable"
	 xmlns="http://www.w3.org/2000/svg" xmlns:xlink="http://www.w3.org/1999/xlink" x="0px" y="0px" width="90px" height="66px"
	 viewBox="0 0 90 66" enable-background="new 0 0 90 66" xml:space="preserve">
<g>
	<path fill="#FFFFFF" d="M1,0.85c0,0,1.391-0.243,3.824-0.485c1.217-0.124,2.694-0.261,4.389-0.364
		c1.695-0.123,3.607-0.196,5.693-0.275c2.086-0.041,4.346-0.108,6.736-0.041c2.39,0.059,4.911,0.298,7.518,0.517
		c2.607,0.226,5.302,0.355,8.04,0.341c2.738-0.001,5.519-0.152,8.3-0.364c2.781-0.201,5.563-0.431,8.301-0.505
		c2.737-0.08,5.432-0.157,8.039-0.233c1.304-0.042,2.586-0.039,3.841-0.042c1.255-0.016,2.482,0.003,3.677,0.038
		c2.391,0.037,4.65,0.136,6.736,0.226c4.172,0.211,7.648,0.485,10.082,0.74C87.393,0.537,88.349,0.643,89,0.715
		c0.652,0.088,1,0.135,1,0.135v0.3c0,0-0.348,0.047-1,0.135c-0.651,0.072-1.607,0.178-2.824,0.313
		c-2.434,0.255-5.91,0.528-10.082,0.74c-2.086,0.09-4.346,0.189-6.736,0.226c-1.194,0.034-2.422,0.053-3.677,0.038
		c-1.255-0.004-2.537,0-3.841-0.042c-2.607-0.076-5.302-0.153-8.039-0.233c-2.738-0.074-5.52-0.304-8.301-0.505
		c-2.781-0.212-5.563-0.363-8.3-0.364c-2.738-0.014-5.432,0.115-8.04,0.341c-2.607,0.219-5.128,0.458-7.518,0.517
		c-2.39,0.067-4.65,0-6.736-0.041c-2.086-0.08-3.998-0.152-5.693-0.275c-1.695-0.103-3.172-0.24-4.389-0.364
		C2.391,1.393,1,1.15,1,1.15V0.85z"/>
</g>
<g>
	<path fill="#FFFFFF" d="M1.106,0.895c0,0,0.869,0.532,2.257,1.592C4.06,3.015,4.897,3.666,5.817,4.45
		C6.752,5.22,7.759,6.137,8.86,7.135c1.081,1.018,2.253,2.117,3.398,3.376c1.151,1.252,2.241,2.694,3.39,4.167
		c1.152,1.468,2.384,2.944,3.777,4.305c1.37,1.383,2.868,2.684,4.409,3.94c1.534,1.265,3.087,2.51,4.509,3.842
		c1.425,1.329,2.828,2.636,4.185,3.901c2.711,2.534,5.021,5.118,6.97,7.363c1.937,2.257,3.476,4.211,4.519,5.614
		c1.046,1.399,1.59,2.252,1.59,2.252l-0.213,0.211c0,0-0.847-0.554-2.234-1.615c-1.391-1.058-3.329-2.619-5.563-4.581
		c-2.223-1.974-4.781-4.312-7.284-7.051c-1.25-1.372-2.542-2.789-3.854-4.229c-1.316-1.437-2.543-3.004-3.791-4.552
		c-1.24-1.556-2.523-3.068-3.891-4.453c-1.345-1.408-2.807-2.657-4.262-3.825c-1.459-1.165-2.889-2.271-4.128-3.436
		c-1.246-1.158-2.333-2.344-3.338-3.436c-0.985-1.112-1.891-2.128-2.65-3.072C3.622,4.926,2.981,4.083,2.46,3.38
		C1.416,1.979,0.894,1.105,0.894,1.105L1.106,0.895z"/>
</g>
<g>
	<path fill="#FFFFFF" d="M90.106,1.105c0,0-0.522,0.874-1.566,2.275c-0.521,0.702-1.162,1.546-1.937,2.475
		c-0.76,0.944-1.665,1.96-2.649,3.072c-1.006,1.092-2.093,2.277-3.338,3.436c-1.239,1.165-2.67,2.271-4.129,3.436
		c-1.455,1.168-2.918,2.417-4.262,3.825c-1.368,1.385-2.652,2.897-3.892,4.453c-1.247,1.548-2.475,3.115-3.791,4.552
		c-1.313,1.44-2.604,2.857-3.854,4.229c-2.504,2.74-5.062,5.078-7.284,7.051c-2.234,1.962-4.172,3.523-5.563,4.581
		c-1.388,1.062-2.234,1.615-2.234,1.615l-0.213-0.211c0,0,0.544-0.853,1.59-2.252c1.042-1.403,2.581-3.357,4.519-5.614
		c1.949-2.245,4.259-4.829,6.97-7.363c1.357-1.265,2.76-2.573,4.185-3.901c1.422-1.332,2.976-2.577,4.51-3.842
		c1.542-1.257,3.039-2.557,4.409-3.94c1.394-1.36,2.625-2.836,3.777-4.305c1.148-1.472,2.238-2.915,3.39-4.167
		c1.145-1.259,2.317-2.358,3.397-3.376c1.102-0.998,2.108-1.915,3.043-2.685c0.921-0.785,1.757-1.435,2.453-1.963
		c1.39-1.06,2.258-1.592,2.258-1.592L90.106,1.105z"/>
</g>
<g>
	<path fill="#FFFFFF" d="M1,20.85c0,0,1.391-0.243,3.824-0.485c1.217-0.124,2.694-0.261,4.389-0.364
		c1.695-0.123,3.607-0.196,5.693-0.275c2.086-0.041,4.346-0.108,6.736-0.041c2.39,0.059,4.911,0.298,7.518,0.517
		c2.607,0.226,5.302,0.355,8.04,0.341c2.738-0.001,5.519-0.152,8.3-0.364c2.781-0.201,5.563-0.431,8.301-0.505
		c2.737-0.08,5.432-0.157,8.039-0.233c1.304-0.042,2.586-0.039,3.841-0.042c1.255-0.016,2.482,0.003,3.677,0.038
		c2.391,0.037,4.65,0.136,6.736,0.226c4.172,0.211,7.648,0.485,10.082,0.74c1.217,0.135,2.173,0.241,2.824,0.313
		c0.652,0.088,1,0.135,1,0.135v0.3c0,0-0.348,0.047-1,0.135c-0.651,0.072-1.607,0.178-2.824,0.313
		c-2.434,0.255-5.91,0.528-10.082,0.74c-2.086,0.09-4.346,0.189-6.736,0.226c-1.194,0.034-2.422,0.053-3.677,0.038
		c-1.255-0.004-2.537,0-3.841-0.042c-2.607-0.076-5.302-0.153-8.039-0.233c-2.738-0.074-5.52-0.304-8.301-0.505
		c-2.781-0.212-5.563-0.363-8.3-0.364c-2.738-0.014-5.432,0.115-8.04,0.341c-2.607,0.219-5.128,0.458-7.518,0.517
		c-2.39,0.067-4.65,0-6.736-0.041c-2.086-0.08-3.998-0.152-5.693-0.275c-1.695-0.102-3.172-0.24-4.389-0.364
		C2.391,21.393,1,21.15,1,21.15V20.85z"/>
</g>
<g>
	<path fill="#FFFFFF" d="M1.106,20.895c0,0,0.869,0.532,2.257,1.592c0.696,0.528,1.533,1.179,2.454,1.963
		c0.935,0.77,1.942,1.687,3.042,2.685c1.081,1.017,2.253,2.117,3.398,3.376c1.151,1.252,2.241,2.694,3.39,4.166
		c1.152,1.469,2.384,2.945,3.777,4.305c1.37,1.384,2.868,2.685,4.409,3.941c1.534,1.265,3.087,2.509,4.509,3.841
		c1.425,1.329,2.828,2.637,4.185,3.902c2.711,2.533,5.021,5.117,6.97,7.362c1.937,2.257,3.476,4.211,4.519,5.614
		c1.046,1.399,1.59,2.252,1.59,2.252l-0.213,0.211c0,0-0.847-0.554-2.234-1.615c-1.391-1.058-3.329-2.619-5.563-4.581
		c-2.223-1.974-4.781-4.312-7.284-7.052c-1.25-1.371-2.542-2.788-3.854-4.228c-1.316-1.437-2.543-3.005-3.791-4.553
		c-1.24-1.556-2.523-3.067-3.891-4.452c-1.345-1.409-2.807-2.657-4.262-3.825c-1.459-1.165-2.889-2.271-4.128-3.437
		c-1.246-1.158-2.333-2.343-3.338-3.436c-0.985-1.112-1.891-2.128-2.65-3.072c-0.774-0.929-1.415-1.773-1.936-2.475
		c-1.045-1.401-1.567-2.275-1.567-2.275L1.106,20.895z"/>
</g>
<g>
	<path fill="#FFFFFF" d="M90.106,21.105c0,0-0.522,0.874-1.566,2.275c-0.521,0.702-1.162,1.546-1.937,2.475
		c-0.76,0.944-1.665,1.96-2.649,3.072c-1.006,1.092-2.093,2.277-3.338,3.436c-1.239,1.165-2.67,2.271-4.129,3.437
		c-1.455,1.168-2.918,2.416-4.262,3.825c-1.368,1.385-2.652,2.896-3.892,4.452c-1.247,1.548-2.475,3.116-3.791,4.553
		c-1.313,1.439-2.604,2.856-3.854,4.228c-2.504,2.74-5.062,5.078-7.284,7.052c-2.234,1.962-4.172,3.523-5.563,4.581
		c-1.388,1.062-2.234,1.615-2.234,1.615l-0.213-0.211c0,0,0.544-0.853,1.59-2.252c1.042-1.403,2.581-3.357,4.519-5.614
		c1.949-2.245,4.259-4.829,6.97-7.362c1.357-1.266,2.76-2.573,4.185-3.902c1.422-1.332,2.976-2.576,4.51-3.841
		c1.542-1.257,3.039-2.558,4.409-3.941c1.394-1.359,2.625-2.836,3.777-4.305c1.148-1.472,2.238-2.914,3.39-4.166
		c1.145-1.259,2.317-2.359,3.397-3.376c1.102-0.998,2.108-1.915,3.043-2.685c0.921-0.785,1.757-1.435,2.453-1.963
		c1.39-1.06,2.258-1.592,2.258-1.592L90.106,21.105z"/>
</g>
</svg>
